<?xml version="1.0" standalone="no"?>
<!DOCTYPE svg PUBLIC "-//W3C//DTD SVG 20010904//EN"
 "http://www.w3.org/TR/2001/REC-SVG-20010904/DTD/svg10.dtd">
<svg version="1.0" xmlns="http://www.w3.org/2000/svg"
 width="1280.000000pt" height="1280.000000pt" viewBox="0 0 1280.000000 1280.000000"
 preserveAspectRatio="xMidYMid meet">
<metadata>
Created by potrace 1.14, written by Peter Selinger 2001-2017
</metadata>
<g transform="translate(0.000000,1280.000000) scale(0.100000,-0.100000)"
fill="#000000" stroke="none">
<path d="M6078 12795 c-2 -1 -48 -5 -103 -9 -55 -3 -120 -8 -145 -11 -202 -21
-275 -30 -410 -51 -85 -14 -167 -27 -182 -29 -15 -2 -35 -6 -45 -9 -10 -3 -34
-8 -53 -12 -19 -3 -39 -7 -45 -8 -5 -2 -28 -6 -50 -10 -22 -5 -76 -17 -120
-28 -44 -11 -87 -21 -96 -23 -108 -22 -462 -133 -668 -209 -251 -94 -611 -260
-826 -379 -44 -25 -102 -57 -130 -72 -27 -15 -57 -33 -66 -41 -8 -8 -19 -14
-22 -14 -13 0 -281 -175 -422 -275 -148 -105 -397 -302 -530 -419 -167 -148
-499 -488 -646 -661 -19 -22 -36 -42 -39 -45 -3 -3 -21 -25 -40 -50 -19 -25
-37 -47 -41 -50 -3 -3 -48 -61 -100 -130 -253 -335 -456 -663 -645 -1046 -57
-116 -104 -214 -104 -217 0 -4 -11 -30 -24 -59 -79 -173 -191 -481 -265 -728
-45 -151 -116 -434 -126 -501 -4 -24 -8 -46 -10 -50 -4 -6 -39 -203 -50 -279
-3 -25 -8 -56 -10 -70 -6 -36 -26 -198 -30 -245 -3 -22 -7 -65 -10 -95 -16
-173 -20 -267 -19 -575 0 -312 4 -423 19 -560 3 -27 7 -72 10 -100 8 -106 49
-385 75 -520 168 -868 485 -1640 974 -2375 38 -58 73 -109 78 -115 4 -5 58
-77 119 -160 62 -82 133 -175 158 -205 25 -30 57 -68 71 -84 237 -282 645
-678 900 -876 25 -19 47 -37 50 -41 9 -11 233 -174 345 -251 466 -321 1016
-594 1575 -781 123 -41 225 -72 225 -67 0 1 14 -4 30 -10 27 -11 157 -47 195
-55 8 -2 42 -10 76 -19 69 -18 341 -73 424 -86 161 -26 251 -39 305 -45 33 -3
74 -8 90 -10 17 -2 59 -6 95 -9 36 -3 101 -9 145 -13 171 -15 846 -7 1009 12
23 2 66 7 96 10 66 6 123 13 210 25 36 5 81 12 100 14 189 27 550 107 791 176
532 152 1100 402 1554 683 202 125 500 331 569 392 6 6 27 22 46 35 19 13 37
27 40 30 3 3 58 49 123 103 169 141 219 188 432 401 189 190 242 247 370 401
37 44 76 91 87 103 11 13 69 89 129 169 489 650 851 1393 1063 2183 36 134 80
323 91 390 3 19 8 43 11 53 3 10 7 30 9 45 2 15 15 97 29 182 21 135 30 208
51 410 21 203 28 804 12 1000 -5 52 -10 122 -13 155 -2 33 -6 74 -9 91 -2 17
-7 57 -10 90 -3 32 -10 84 -15 114 -6 30 -12 73 -15 95 -22 185 -89 492 -167
765 -184 651 -459 1245 -842 1820 -38 58 -73 109 -78 115 -4 5 -50 66 -101
135 -196 267 -343 436 -617 710 -191 192 -277 272 -422 392 -111 92 -120 99
-213 171 -5 4 -28 21 -50 38 -185 144 -516 357 -770 496 -100 55 -460 233
-472 233 -4 0 -21 7 -38 16 -16 9 -52 25 -80 36 -27 11 -63 25 -80 32 -133 58
-384 146 -570 201 -120 36 -465 123 -518 130 -23 4 -44 8 -48 10 -7 5 -225 43
-284 50 -22 3 -65 9 -95 15 -30 5 -83 12 -117 15 -34 3 -71 8 -83 10 -12 2
-68 7 -124 11 -55 3 -110 8 -121 11 -21 5 -751 13 -757 8z"/>
</g>
</svg>
